<?xml version="1.0" encoding="utf-8"?>
<!-- Generator: Adobe Illustrator 21.0.0, SVG Export Plug-In . SVG Version: 6.00 Build 0)  -->
<svg version="1.1" id="Calque_1" xmlns="http://www.w3.org/2000/svg" xmlns:xlink="http://www.w3.org/1999/xlink" x="0px" y="0px"
	 viewBox="0 0 720 530" style="enable-background:new 0 0 720 530;" xml:space="preserve">
<style type="text/css">
	.st0{display:none;}
	.st1{fill:#FFFFFF;}
</style>
<g id="Calque_3" class="st0">
	
		<image style="display:inline;overflow:visible;enable-background:new    ;" width="2068" height="2757" xlink:href="C3FA641096664676.png"  transform="matrix(0.1792 0 0 0.1792 175 16)">
	</image>
</g>
<g id="Calque_1_1_">
	<g>
		<path class="st1" d="M255.3,132.2c-0.2,0.6-0.2,1.3-0.3,2c0.1,1.3,0.3,3.2,0.4,4.5c0.3,1,0.1,2.2,0.5,3.2c0.4,1.1,0.7,2.3,1,3.5
			c0.2,0.6,0.3,1.3,0.4,1.9c0.2,0.9,0.2,1.8,0.6,2.6c0.6,1.2,0.6,2.4,0.9,3.6c0.2,0.9,0.7,1.8,0.9,2.7c0.2,0.9,0.2,1.8,0.4,2.6
			c0.4,1.9,0.8,3.9,1.2,5.8c0.2,1.2,0.6,2.3,0.7,3.5c0.2,1.8,0.7,3.5,1.1,5.2c0.1,0.5,0.1,1,0.2,1.5c0.2,1,0.5,2.1,0.7,3.1
			c0.3,1.8,0.6,3.6,0.9,5.4c0.2,0.9,0.3,1.9,0.5,2.8c0.3,1.7,0.6,3.5,0.9,5.2c0.3,1.6,0.7,3.1,1,4.6c0.4,1.8,0.9,3.6,1.4,5.3
			c0.3,1.1,0.5,2.2,0.8,3.3c0.4,1.2,0.8,2.3,1.2,3.5c0.3,1.1,0.5,2.2,0.8,3.4c0.4,1.3,0.9,2.6,1.2,4c0.2,0.8,0.1,1.6,0.2,2.4
			c0.1,0.8,0.3,1.6,0.5,2.3c0.1,0.4,0.3,0.7,0.3,1.1c0.2,2.6,0.1,5.3,0.6,7.9c0.3,1.8,0.2,3.7,1.1,5.4c0.4,0.7,0.4,1.5,0.6,2.3
			c0.4,1.2,0.9,2.4,1.3,3.6c0.4,1.1,0.6,2.2,1,3.3c0.1,0.4,0.4,0.7,0.5,1c0.5,1.3,1,2.7,1.5,4c0.5,1.1,1.1,2.1,1.7,3.2
			c0.4,0.7,0.7,1.5,0.9,2.3c0.5,1.6,1,3.2,1.6,4.8c0.3,0.9,0.9,1.8,1.3,2.7c0.2,0.4,0.2,0.9,0.4,1.4c0.5,1.6,1,3.2,1.6,4.8
			c0.5,1.3,1.2,2.6,1.7,3.9c0.8,1.9,1,3.9,1.1,5.9c0.1,2.2,0.3,4.3,0.5,6.5c0.1,1,0.3,1.9,0.5,2.9c0.3,1.3,0.6,2.6,0.9,3.9
			c0.2,0.9,0.4,1.7,0.5,2.6c0.3,2,0.5,4.1,0.9,6.2s0.8,4.2,1.4,6.2c0.6,1.7,0.9,3.4,1.4,5.1c0.3,1.1,0.3,2.4,1.3,3.3
			c0.1,0.1,0,0.4,0.1,0.6c0.5,1.5,1,2.9,1.6,4.3c0.2,0.4,0.4,0.9,0.6,1.3c0.5,0.8,0.9,1.7,1.5,2.4c1.5,1.9,3.1,3.7,4.7,5.5
			c0.7,0.8,1.6,1.6,2.4,2.3c0.5,0.5,1,1.1,1.6,1.7s1.2,1.1,1.7,1.7c0.6,0.7,1.3,1.5,1.6,2.4c0.4,1.3,0.6,2.6,1,3.9
			c0.2,0.7,0.6,1.3,0.9,2c0,0.1,0.1,0.2,0.1,0.3c1.5,4.4,1,8.9,0.9,13.3c-0.1,3-0.2,6.1-0.3,9.1c0,0.7-0.4,1.4-0.7,2.1
			c-0.8,1.5-1.8,3-2.6,4.6c-0.6,1.1-1.2,2.3-1.8,3.4c-0.5,0.9-1,1.7-1.5,2.6v0.1c-0.2,1-0.3,2-0.5,3c-0.2,0.9-0.5,1.8-0.7,2.7
			c-0.3,1.1-0.5,2.1-0.7,3.2c-0.1,1.3-0.8,2.3-1.3,3.4c-0.9,1.9-2.3,3.5-2.5,5.7c-0.1,1.3-0.7,2.6-1,3.8c-0.3,1.2-0.6,2.5-0.9,3.7
			c-0.3,1.4-0.6,2.8-1,4.2c-0.2,0.6-0.6,1.2-1,1.8c-0.5,0.7-1.1,1.4-1.6,2.2c-0.5,0.8-0.9,1.6-1.4,2.4c-0.9,1.5-1.8,3-2.7,4.5
			c-0.4,0.6-0.7,1.3-1,2c-0.6,1.1-1.3,2.2-1.8,3.3c-0.6,1.3-1.1,2.7-1.6,4.1c-0.2,0.4-0.4,0.8-0.5,1.2c-0.3,0.8-0.6,1.7-0.9,2.5
			c-0.2,0.7-0.6,1.3-0.8,1.9c-0.1,0.4-0.2,0.8-0.3,1.3c-0.3,1.1-0.5,2.3-0.8,3.4c-0.4,1.4-0.8,2.9-1.2,4.3c0,0.1,0,0.2-0.1,0.3
			c-0.2,1.4-0.3,2.9-0.7,4.3c-0.9,3-0.3,6.1-0.5,9.2c-0.1,1.4,0.3,2.7,1,3.9c0.5,1,0.6,2.2,1,3.2c0.2,0.6,0.5,1.1,0.8,1.7
			c0,0.1,0.2,0.1,0.2,0.2c0,1.5,1.1,2.6,1.9,3.7c0.8,1.2,1.5,2.6,2.8,3.5c0.4,0.3,0.6,0.9,1,1.4c0.2,0.3,0.4,0.7,0.7,1
			c0.4,0.4,0.9,0.8,1.3,1.1c0.8,0.6,1.6,1.3,2.4,1.9s1.6,1.1,2.4,1.7c0.2,0.1,0.5,0.2,0.7,0.3c0.8,0.5,1.5,1,2.3,1.4
			c0.9,0.5,1.8,0.8,2.8,1.3c1.1,0.6,2.1,1.2,3.3,1.7c0.5,0.2,1.1,0.3,1.6,0.4c1.5,0.5,3,1,4.5,1.5c1.1,0.4,2.2,0.7,3.3,1.1
			c1.6,0.5,3.1,1,4.7,1.3c1.9,0.4,3.8,0.6,5.7,0.9c0.9,0.1,1.8,0.4,2.7,0.5c2.4,0.3,4.8,0.6,7.2,0.9h9.4c0.3,0,0.7-0.1,1-0.1
			c2.8-0.1,5.6-0.2,8.4-0.4c1.3-0.1,2.5-0.2,3.8-0.4c1.7-0.3,3.3-0.6,5-1c1.1-0.3,2.3-0.6,3.4-0.9c0.2,0,0.4,0,0.6,0
			c1.3-0.2,2.6-0.3,3.9-0.5c1.3-0.3,2.6-0.7,3.9-1c1.2-0.3,2.3-0.5,3.5-0.9c0.7-0.2,1.4-0.6,2.1-0.8c0.6-0.2,1.2-0.3,1.7-0.4
			c0.4-0.1,0.8-0.4,1.3-0.6c0.9-0.3,1.7-0.6,2.6-0.9c0.1,0,0.3,0,0.3-0.1c0.8-1.1,2.2-1.2,3.3-1.8c1.3-0.7,2.6-1.5,3.8-2.2
			c0.2-0.1,0.5-0.2,0.7-0.3c1.5-0.9,2.9-1.8,4.1-3c0.9-1,2.2-1.6,3.2-2.5c0.9-0.8,1.6-1.7,2.4-2.5c0.1-0.1,0.3-0.2,0.4-0.2
			c0.1-0.1,0.4-0.1,0.4-0.2c0.8-1.4,1.9-2.5,2.8-3.8c0.5-0.7,0.7-1.6,1-2.5c0.3-0.8,0.7-1.5,0.9-2.2c0.2-0.4,0.2-0.9,0.3-1.3
			c1-3.1,1-6.4,0.5-9.5c-0.2-1.4-0.3-2.8-0.4-4.2c-0.1-1.4-0.2-2.8-0.4-4.1c-0.1-0.9-0.6-1.7-0.9-2.5v-0.1c-0.2-0.9-0.4-1.7-0.6-2.6
			c-0.2-1.4-0.7-2.7-1.2-3.9c-0.2-0.5-0.3-1-0.4-1.5c-0.5-1.7-0.9-3.4-1.5-5c-0.4-1.1-1.2-2.2-1.7-3.2c-0.5-1.1-1-2.2-1.5-3.2
			s-1.2-1.9-1.8-2.9c-0.2-0.4-0.4-0.8-0.6-1.1c-0.6-1.1-1.2-2.2-1.8-3.3c-0.4-0.7-0.9-1.4-1.3-2.1s-0.8-1.4-1.2-2.1
			c-0.3-0.6-0.7-1.1-1-1.7c-0.2-0.3-0.3-0.6-0.4-0.9s-0.4-0.5-0.5-0.8c-0.2-0.5-0.2-1.1-0.4-1.6c-0.3-1.1-0.6-2.3-0.9-3.4
			c-0.2-0.7-0.2-1.4-0.4-2.1c-0.4-1.4-0.9-2.7-1.4-4c-0.4-0.9-0.4-2.1-0.6-3.1c-0.1-0.6-0.4-1.3-0.6-1.9s-0.5-1.1-0.7-1.7
			c-0.3-0.7-0.6-1.4-0.9-2.1c-0.2-0.4-0.3-0.8-0.4-1.2c-0.2-0.9-0.4-1.8-0.7-2.7c-0.2-0.6-0.7-1.2-1.1-1.8c-0.2-0.3-0.4-0.6-0.5-0.9
			c-0.4-0.7-0.7-1.5-1-2.2c-0.2-0.5-0.4-1-0.6-1.4c-0.7-1.5-1.4-3-2.1-4.5c0-0.1,0-0.1-0.1-0.2c-0.2-1.1-0.3-2.3-0.7-3.4
			c-0.5-1.6-0.5-3.2-1-4.8c-0.2-0.8-0.3-1.7-0.5-2.5s-0.7-1.5-0.8-2.3c-0.1-0.5,0.3-1.1,0.6-1.5c1-1,2.1-1.9,3.1-2.9
			c0.9-0.8,1.8-1.7,2.7-2.5c0.9-0.8,1.9-1.5,2.7-2.4c0.7-0.7,1.3-1.5,2-2.3c1.3-1.5,2.7-3,3.7-4.7c0.8-1.3,1.8-2.6,2.1-4.3
			c0.1-0.9,0.8-1.7,1.1-2.6c0.6-1.9,1.5-3.6,1.3-5.7c-0.1-0.9,0.4-1.9,0.6-2.9c0-0.1,0.1-0.3,0.1-0.4c0.2-1.1,0.4-2.3,0.7-3.4
			c0.2-1.1,0.5-2.2,0.8-3.2c0.3-0.8,0.6-1.7,0.9-2.5c0.1-0.2,0-0.4,0.1-0.6c0.1-1,0-2.2,0.5-3c0.5-0.9,0.2-1.9,0.5-2.7
			c0.6-1.4,0.1-2.8,0.5-4.1c0.3-0.9,0.1-1.9,0.7-2.8c0.5-0.8,0.4-1.9,0.6-2.9c0.2-0.7,0.4-1.3,0.6-2c0.1-0.3,0.2-0.6,0.2-1
			c0.2-1.9,0.1-3.9,0.6-5.7c0.4-1.6,0.5-3.2,0.9-4.7c0.3-1.2,0.2-2.3,0.4-3.5c0.1-0.7,0.4-1.4,0.6-2.1c0.3-0.9,0.5-1.8,0.8-2.6
			c0.4-1.1,1.2-2.1,1.3-3.2c0.2-1.8,1.4-3.2,1.6-4.9c0.2-1.1,0.9-2.1,1.2-3.2c0.4-1.2,0.8-2.3,1.4-3.4c1-1.9,1.6-3.9,2.9-5.6
			c0.5-0.6,0.7-1.5,1-2.3c0.4-0.8,0.8-1.5,1.2-2.3c0.4-0.8,0.7-1.7,1-2.6c0.4-0.8,0.8-1.7,1.2-2.5c0.7-1.7,1.5-3.4,2.2-5.1
			c0.3-0.6,0.7-1.2,1-1.9c0.2-0.6,0.3-1.2,0.3-1.8c0-5.1,0-10.2,0.1-15.3c0-1.6,0.1-3.3,0.6-4.7c0.5-1.7,0.2-3.4,0.5-5
			c0.2-1.1,0.1-2.3,0.4-3.3c0.4-1.4,0.5-3,2.1-3.8c0.9-0.5,0.9-1.5,0.4-2.6c-0.4-0.9-0.9-2-0.6-2.8c0.3-1.1,0.1-2.2,0.5-3.1
			c0.6-1.6,0.7-3.2,0.8-4.8c0.1-1.9-0.1-3.7,0.1-5.6c0.1-1.5,0.4-2.9,0.6-4.4c0.2-1.2,0.5-2.3,0.8-3.4c0.2-1.1,0.4-2.3,0.6-3.5
			c0.3-1.3,0.6-2.5,0.9-3.8c0.2-0.9,0.3-1.8,0.5-2.7c0.8-3,0.4-6.2,0.9-9.2c0.3-1.8,0.1-3.6,0.5-5.3c0.4-2.1,0.8-4.2,1.4-6.2
			c0.7-2.1,1-4.3,1.3-6.5c1-0.8,0.1-2.2,0.9-3.2c0.4-0.5,0.2-1.3,0.4-2c0.3-0.9,0.7-1.7,0.9-2.6c0.1-0.5,0.1-1.1,0-1.6
			c0-0.5-0.3-1-0.3-1.5c-0.1-1.1,0.1-2.3-0.2-3.3c-0.5-1.7-0.3-3.3-0.5-5c-0.1-0.8-0.2-1.6-0.3-2.4c0-0.9-0.3-1.9-0.9-2.6
			c-0.2-0.2-0.2-0.5-0.3-1c-0.5,0-1.1,0-1.6,0c-0.8,0.1-1.3-0.3-1.6-1.1c-0.1-0.2-0.2-0.4-0.4-0.5c-0.2,3.4-0.6,6.2-1.2,7.9
			c-2,6-1,12-1,12s-2,11-3,17s-5,11-7,14s-5,13-5,13l-2-1c0,0-5-2-10,0s-5,5-5,5s-1-8-2-14s-10-31-10-31s-1-6,0-7s0-8,0-10
			s-5-11-7-14c-1.2-1.9-2-2-2-2h-3l-6-3l-3,2l-7,11c0,0,6,11,9,15s7,5,7,5s-11,44-39,51s-42,0-57-17s-19-49-19-49c0-0.9,0-1.7,0-2.6
			c-0.1-0.1-0.2-0.1-0.3-0.2c-0.6-0.3-1.3-0.5-2-0.5c-0.9-0.1-1.7,0-2.6,0c-1.1,0.1-1.9,0.7-2.1,1.8c0,0.2,0,0.3,0,0.5
			c0.3,1.2,0.4,2.5,1,3.5c0.8,1.5,0.4,3.1,0.2,4.5C256,130.1,255.6,131.2,255.3,132.2z"/>
		<g>
			<g>
				<polygon class="st1" points="337.5,138.5 336.5,142.5 332.5,145.5 332.5,149.5 333.5,152.5 333.5,154.5 331.5,156.5 
					331.5,160.5 334.5,164.5 337.5,161.5 337.5,157.5 340.5,153.5 338.5,147.5 340.5,143.5 340.5,138.5 339.5,137.5 				"/>
			</g>
			<g>
				<path class="st1" d="M348.6,29c-47.8,0-86.5,40.3-86.5,90l1-0.1l5-4l5,2l4-2l4,6v6l7,12l2,6l-1,5l1,3v5l5,9l7,6l2,4l5,2l1-2l6-1
					l2-10l-3-3l3-1l4-5l-1.5-3.5v-2l-3-3l1-1l4,1v-3l2-8l-5-7v-3l-2-5l2-7l6-4l2-5h3l3-4l4-4v-4l3-1l1-2h-4l-3,1l-2,2h-3l-3-1v-2
					l1-2l-4-3l-1-2l-4-4l1-5l-3-1l2-3v-6l5,5v6l2,1l2,3l1,6h9l3-3l5-2l3-3l-3-2l1-2l-7-1l-2-3l1-3h2l4,4l3,1l2,2h6l3,3l-1,6l5,4l2-4
					l1,1c0,0,3,9,4,12s3,11,3,11h2l2-3l3-4v-5l2-4v-3l3-3l2-2l2-1l3,4v8l1,1l4-2v1v7l8,13v-8h-2l-4-7l2-7l2,2l1,4l2-3v-5l-2-3l-2-3
					l1-2l1-1l-2-2h-1l-1-1l3-1l2,1l1,1h1v1l-1,3v2h3l1-3l-1-1v-1h3l1-2l-1-2l1-2h2l1,3l1-3l-2-5l2,1v-6v-1.2
					C400.7,42.4,376.1,29,348.6,29z M331.5,60.5v2l-5,2c0,0-3-1-4-2s-8,0-8,0l-1-2l-3,2l-1,1l-4-2l1-2l-3,1l-5,4h-3v-4l-1,2l-2-1
					l2-3l4-1v-3v-3l5-2l3,3l2,3l1-2l3-1l-1-3l-3-2l2-1h5v5l4,5l1-1v-6l5-1l2,6h4l4,2L331.5,60.5z M342.5,50.5l-5-1l-7-1l-3-2h3l2-2
					l3,1h3l-1-2h3l2-1l1,1l-3,4h4L342.5,50.5z M356.5,55.5l-6-2c0,0-1-2-1-3l2-2l-1-1l-2-2l1-1v-2h4l2,4l-1,2l2,3V55.5z"/>
			</g>
			<polygon class="st1" points="392.5,108.5 397.5,115.5 399.5,119.5 399.5,125.5 403.5,126.5 404.5,127.5 406.5,128.5 403.5,130.5 
				405.5,132.5 407.5,132.5 408.5,133.5 410.5,134.5 410.5,131.5 408.5,130.5 408.5,128.5 405.5,125.5 403.5,121.5 402.5,117.5 
				395.5,108.5 			"/>
			<polygon class="st1" points="410.5,115.5 409.5,121.5 412.5,125.5 414.5,127.5 416.5,123.5 419.5,119.5 419.5,114.5 418.5,108.5 
				416.5,109.5 415.5,110.5 414.5,112.5 413.5,115.5 411.5,115.5 			"/>
			<path class="st1" d="M431.5,137.5l-1,1l-1,2h-2v2l-1,1v3h-2v3l-1,1l-1,1l-1-2l-1-2l-1,1v3l-1,1l-1,1l-1,2l-2,1h-2l-1,1h-3l-1,2v1
				l-2,2l-1,3v4l-1,1l-1,2h-1l-2,2h6h4l1-2l6,1h1c7-9.5,12.2-20.6,15-32.5l0.9-4.2c0-0.1,0-0.2,0-0.3L431.5,137.5z"/>
			<polygon class="st1" points="419,133 419,134 420,133 420,132 419,132 			"/>
		</g>
	</g>
</g>
</svg>
